{"title":"Six.Nations.2014.Rugby.Union-England.v.Ireland-2014.02.22.720p","uid":9653774,"size":2813272361,"categoryP":"video","categoryS":"hd___tv_shows","magnet":"?xt=urn:btih:ab39f4320c7c2d643685e9e5b1f4dad6b8fd0524&amp;dn=Six.Nations.2014.Rugby.Union-England.v.Ireland-2014.02.22.720p&amp;tr=udp%3A%2F%2Ftracker.openbittorrent.com%3A80&amp;tr=udp%3A%2F%2Fopen.demonii.com%3A1337&amp;tr=udp%3A%2F%2Ftracker.coppersurfer.tk%3A6969&amp;tr=udp%3A%2F%2Fexodus.desync.com%3A6969","seeders":1,"leechers":0,"uploader":"rugbybill","files":2,"time":1393141600,"description":"Six.Nations.2014.Rugby.Union-England.v.Ireland-2014.02.22.720p.x264\n\nSPORT: Six Nations Rugby Union - England v Ireland.\nOn: BBC 1 HD     \nDate: Saturday 22nd February 2014 \nTime: 15:30 to 17:55 \n\nJohn Inverdale introduces live coverage of the clash between England and Ireland on the third weekend of the Six Nations championship, with studio analysis from Sir Clive Woodward, Jeremy Guscott and Keith Wood plus commentary by Eddie Butler, Brian Moore and Philip Matthews. England ground out a 12-6 win on a tricky day for rugby in Dublin last season, and the Red Rose also emerged victorious during their last Six Nations meeting at Twickenham, a 30-9 win in March 2012. With a home World Cup on the horizon next year England have spoken of wanting to make Twickenham a fortress, but legendary Irish centre Brian O'Driscoll will no doubt have other ideas. If he plays in Ireland's opening two fixtures, O'Driscoll will equal Australian legend George Gregan's world record of 139 Test appearances at Twickenham in what is his final season as a professional.\n\nFull coverage.\n\nGeneral\nComplete name                            : 2014.02.22.6N.England.v.Ireland.720p.x264.mp4\nFormat                                   : MPEG-4\nFormat profile                           : Base Media\nCodec ID                                 : isom\nFile size                                : 2.62 GiB\nDuration                                 : 2h 23mn\nOverall bit rate                         : 2 614 Kbps\nWriting application                      : X264-2358-CLI\n\nVideo\nID                                       : 1\nFormat                                   : AVC\nFormat/Info                              : Advanced Video Codec\nFormat profile                           : &lt;a class=&quot;__cf_email__&quot; href=&quot;/cdn-cgi/l/email-protection&quot; data-cfemail=&quot;c088a9a7a8808cf3eef1&quot;&gt;[email&amp;#160;protected]&lt;/a&gt;&lt;script cf-hash='f9e31' type=&quot;text/javascript&quot;&gt;\n/* &lt;![CDATA[ */!function(){try{var t=&quot;currentScript&quot;in document?document.currentScript:function(){for(var t=document.getElementsByTagName(&quot;script&quot;),e=t.length;e--;)if(t[e].getAttribute(&quot;cf-hash&quot;))return t[e]}();if(t&amp;&amp;t.previousSibling){var e,r,n,i,c=t.previousSibling,a=c.getAttribute(&quot;data-cfemail&quot;);if(a){for(e=&quot;&quot;,r=parseInt(a.substr(0,2),16),n=2;a.length-n;n+=2)i=parseInt(a.substr(n,2),16)^r,e+=String.fromCharCode(i);e=document.createTextNode(e),c.parentNode.replaceChild(e,c)}}}catch(u){}}();/* ]]&gt; */&lt;/script&gt;\nFormat settings, CABAC                   : Yes\nFormat settings, ReFrames                : 4 frames\nCodec ID                                 : avc1\nCodec ID/Info                            : Advanced Video Coding\nDuration                                 : 2h 23mn\nBit rate                                 : 2 480 Kbps\nWidth                                    : 1 280 pixels\nHeight                                   : 720 pixels\nDisplay aspect ratio                     : 16:9\nFrame rate mode                          : Constant\nFrame rate                               : 25.000 fps\nColor space                              : YUV\nChroma subsampling                       : 4:2:0\nBit depth                                : 8 bits\nScan type                                : Progressive\nBits/(Pixel*Frame)                       : 0.108\nStream size                              : 2.49 GiB (95%)\n\nAudio\nID                                       : 2\nFormat                                   : AAC\nFormat/Info                              : Advanced Audio Codec\nFormat profile                           : LC\nCodec ID                                 : 40\nDuration                                 : 2h 23mn\nDuration_LastFrame                       : -21ms\nBit rate mode                            : Constant\nBit rate                                 : 128 Kbps\nChannel(s)                               : 2 channels\nChannel positions                        : Front: L R\nSampling rate                            : 48.0 KHz\nCompression mode                         : Lossy\nStream size                              : 131 MiB (5%)\nLanguage                                 : English\n\n","torrent":{"xt":"urn:btih:ab39f4320c7c2d643685e9e5b1f4dad6b8fd0524","amp;dn":"Six.Nations.2014.Rugby.Union-England.v.Ireland-2014.02.22.720p","amp;tr":["udp%3A%2F%2Ftracker.openbittorrent.com%3A80","udp%3A%2F%2Fopen.demonii.com%3A1337","udp%3A%2F%2Ftracker.coppersurfer.tk%3A6969","udp%3A%2F%2Fexodus.desync.com%3A6969"],"infoHash":"ab39f4320c7c2d643685e9e5b1f4dad6b8fd0524","infoHashBuffer":{"type":"Buffer","data":[171,57,244,50,12,124,45,100,54,133,233,229,177,244,218,214,184,253,5,36]},"announce":[],"urlList":[]}}